<svg xmlns="http://www.w3.org/2000/svg" version="1.1" xmlns:xlink="http://www.w3.org/1999/xlink" width="74" height="70"><svg width="74" height="70" viewBox="0 0 74 70" fill="none" xmlns="http://www.w3.org/2000/svg">
<path d="M36.5004 62.9092C21.4254 62.9092 9.09131 50.5752 9.09131 35.5002C9.09131 20.4252 21.4254 8.09106 36.5004 8.09106C51.5754 8.09106 63.9095 20.4252 63.9095 35.5002C63.9095 50.5752 51.7277 62.9092 36.5004 62.9092ZM36.5004 9.61379C22.1868 9.61379 10.614 21.1865 10.614 35.5002C10.614 49.8138 22.1868 61.3865 36.5004 61.3865C50.814 61.3865 62.3868 49.8138 62.3868 35.5002C62.3868 21.1865 50.814 9.61379 36.5004 9.61379Z" fill="#0F0E12"></path>
<path d="M36.4996 59.8635C23.0996 59.8635 12.136 48.8999 12.136 35.4999C12.136 22.0999 23.0996 11.1362 36.4996 11.1362C49.8996 11.1362 60.8633 22.0999 60.8633 35.4999C60.8633 48.8999 50.0519 59.8635 36.4996 59.8635ZM36.4996 12.659C23.861 12.659 13.6587 22.8612 13.6587 35.4999C13.6587 48.1385 23.861 58.3408 36.4996 58.3408C49.1383 58.3408 59.3405 48.1385 59.3405 35.4999C59.3405 22.8612 49.1383 12.659 36.4996 12.659Z" fill="#0F0E12"></path>
<path d="M36.5001 56.8182C24.7751 56.8182 15.1819 47.2251 15.1819 35.5001C15.1819 23.7751 24.7751 14.1819 36.5001 14.1819C48.2251 14.1819 57.8182 23.7751 57.8182 35.5001C57.8182 47.2251 48.3773 56.8182 36.5001 56.8182ZM36.5001 15.7046C25.5364 15.7046 16.7046 24.5364 16.7046 35.5001C16.7046 46.4637 25.5364 55.2955 36.5001 55.2955C47.4637 55.2955 56.2955 46.4637 56.2955 35.5001C56.2955 24.5364 47.4637 15.7046 36.5001 15.7046Z" fill="#0F0E12"></path>
<path d="M36.4995 53.7727C26.4495 53.7727 18.2268 45.55 18.2268 35.5C18.2268 25.45 26.4495 17.2273 36.4995 17.2273C46.5495 17.2273 54.7723 25.45 54.7723 35.5C54.7723 45.55 46.7018 53.7727 36.4995 53.7727ZM36.4995 18.75C27.2109 18.75 19.7495 26.2114 19.7495 35.5C19.7495 44.7887 27.2109 52.25 36.4995 52.25C45.7882 52.25 53.2495 44.7887 53.2495 35.5C53.2495 26.2114 45.7882 18.75 36.4995 18.75Z" fill="#0F0E12"></path>
<path d="M36.5 50.7275C28.125 50.7275 21.2727 43.8752 21.2727 35.5002C21.2727 27.1252 28.125 20.2729 36.5 20.2729C44.875 20.2729 51.7273 27.1252 51.7273 35.5002C51.7273 43.8752 44.875 50.7275 36.5 50.7275ZM36.5 21.7957C28.8863 21.7957 22.7954 27.8866 22.7954 35.5002C22.7954 43.1139 28.8863 49.2048 36.5 49.2048C44.1136 49.2048 50.2045 43.1139 50.2045 35.5002C50.2045 27.8866 44.1136 21.7957 36.5 21.7957Z" fill="#0F0E12"></path>
<path d="M36.4999 47.6818C29.7999 47.6818 24.3181 42.1999 24.3181 35.4999C24.3181 28.7999 29.7999 23.3181 36.4999 23.3181C43.1999 23.3181 48.6818 28.7999 48.6818 35.4999C48.6818 42.1999 43.1999 47.6818 36.4999 47.6818ZM36.4999 24.8408C30.5613 24.8408 25.8408 29.5613 25.8408 35.4999C25.8408 41.4386 30.5613 46.159 36.4999 46.159C42.4386 46.159 47.159 41.4386 47.159 35.4999C47.159 29.5613 42.4386 24.8408 36.4999 24.8408Z" fill="#0F0E12"></path>
<path d="M36.5 65.9547C19.75 65.9547 6.04541 52.2502 6.04541 35.5002C6.04541 18.7502 19.75 5.04565 36.5 5.04565C53.25 5.04565 66.9545 18.7502 66.9545 35.5002C66.9545 52.2502 53.4022 65.9547 36.5 65.9547ZM36.5 6.56838C20.5113 6.56838 7.56814 19.5116 7.56814 35.5002C7.56814 51.4888 20.5113 64.432 36.5 64.432C52.4886 64.432 65.4318 51.4888 65.4318 35.5002C65.4318 19.5116 52.4886 6.56838 36.5 6.56838Z" fill="#0F0E12"></path>
<path d="M36.5 69C18.075 69 3 53.925 3 35.5C3 17.075 18.075 2 36.5 2C54.925 2 70 17.075 70 35.5C70 53.925 55.0773 69 36.5 69ZM36.5 3.52273C18.8364 3.52273 4.52273 17.8364 4.52273 35.5C4.52273 53.1636 18.8364 67.4773 36.5 67.4773C54.1636 67.4773 68.4773 53.1636 68.4773 35.5C68.4773 17.8364 54.1636 3.52273 36.5 3.52273Z" fill="#0F0E12"></path>
<path d="M47.6522 70C51.7077 68.7306 55.4734 66.7633 58.8048 64.2427V62.3499C55.5186 65.0132 51.7475 67.0847 47.6522 68.4164V70Z" fill="#0F0E12"></path>
<path d="M47.6522 1.60985C51.7431 2.95831 55.5154 5.05671 58.8048 7.72925V5.76493C55.475 3.24171 51.7127 1.26889 47.6522 0V1.60985Z" fill="#0F0E12"></path>
<path d="M25.3469 69.8745C21.2581 68.5464 17.5015 66.5107 14.1943 63.9164V61.9052C17.4652 64.6428 21.2378 66.8176 25.3469 68.2389V69.8745Z" fill="#0F0E12"></path>
<path d="M25.3469 1.76446C21.2422 3.1819 17.4684 5.3566 14.1943 8.10781V6.11771C17.5116 3.52233 21.275 1.47947 25.3469 0.146562V1.76446Z" fill="#0F0E12"></path>
<path d="M0 35.0057C0 32.2168 0.314387 29.5065 0.903291 26.8947H2.50094C1.87496 29.5085 1.52718 32.2354 1.52718 35.0057C1.52718 37.7714 1.85428 40.4963 2.46616 43.1167H0.915494C0.322524 40.5206 0 37.8169 0 35.0057Z" fill="#0F0E12"></path>
<path d="M72.389 43.1167C72.982 40.5206 73.3045 37.8169 73.3045 35.0057C73.3045 32.2168 72.9901 29.5065 72.4012 26.8947H70.8035C71.4295 29.5085 71.7773 32.2354 71.7773 35.0057C71.7773 37.7714 71.4502 40.4963 70.8383 43.1167H72.389Z" fill="#0F0E12"></path>
</svg><style>@media (prefers-color-scheme: light) { :root { filter: none; } }
@media (prefers-color-scheme: dark) { :root { filter: invert(100%); } }
</style></svg>